HIERARCHY
ROOT Hips
{
 OFFSET 0.000000 0.000000 0.000000
 CHANNELS 6 Xposition Yposition Zposition Yrotation Xrotation Zrotation
 JOINT Chest
 {
  OFFSET 0.000000 9.303000 0.001900
  CHANNELS 3 Yrotation Xrotation Zrotation
  JOINT Chest2
  {
   OFFSET 0.000000 9.301100 -0.003900
   CHANNELS 3 Yrotation Xrotation Zrotation
   JOINT Chest3
   {
    OFFSET 0.000000 9.262800 0.000000
    CHANNELS 3 Yrotation Xrotation Zrotation
    JOINT Chest4
    {
     OFFSET 0.000000 9.253300 0.000000
     CHANNELS 3 Yrotation Xrotation Zrotation
     JOINT Neck
     {
      OFFSET 0.000000 14.010300 0.000000
      CHANNELS 3 Yrotation Xrotation Zrotation
      JOINT Head
      {
       OFFSET 0.000000 8.657600 -0.008300
       CHANNELS 3 Yrotation Xrotation Zrotation
       End Site
       {
        OFFSET 0.000000 16.540200 -0.004400
       }
      }
     }
     JOINT RightCollar
     {
      OFFSET -2.834100 9.267700 0.000000
      CHANNELS 3 Yrotation Xrotation Zrotation
      JOINT RightShoulder
      {
       OFFSET -13.135200 0.000000 0.000000
       CHANNELS 3 Yrotation Xrotation Zrotation
       JOINT RightElbow
       {
        OFFSET 0.000000 -28.893500 0.000000
        CHANNELS 3 Yrotation Xrotation Zrotation
        JOINT RightWrist
        {
         OFFSET 0.000000 -23.344000 0.000000
         CHANNELS 3 Yrotation Xrotation Zrotation
         End Site
         {
          OFFSET 0.000000 -17.223000 0.000000
         }
        }
       }
      }
     }
     JOINT LeftCollar
     {
      OFFSET 2.834100 9.267700 0.000000
      CHANNELS 3 Yrotation Xrotation Zrotation
      JOINT LeftShoulder
      {
       OFFSET 13.135200 0.000000 0.000000
       CHANNELS 3 Yrotation Xrotation Zrotation
       JOINT LeftElbow
       {
        OFFSET 0.000000 -28.893500 0.000000
        CHANNELS 3 Yrotation Xrotation Zrotation
        JOINT LeftWrist
        {
         OFFSET 0.000000 -23.344000 0.000000
         CHANNELS 3 Yrotation Xrotation Zrotation
         End Site
         {
          OFFSET 0.000000 -17.223000 0.000000
         }
        }
       }
      }
     }
    }
   }
  }
 }
 JOINT RightHip
 {
  OFFSET -7.547200 -0.009500 -0.001000
  CHANNELS 3 Yrotation Xrotation Zrotation
  JOINT RightKnee
  {
   OFFSET 0.000000 -39.762800 0.000900
   CHANNELS 3 Yrotation Xrotation Zrotation
   JOINT RightAnkle
   {
    OFFSET 0.000000 -38.588200 0.001600
    CHANNELS 3 Yrotation Xrotation Zrotation
    JOINT RightToe
    {
     OFFSET 0.000000 -4.693300 10.419700
     CHANNELS 3 Yrotation Xrotation Zrotation
     End Site
     {
      OFFSET 0.000000 -1.379900 5.669300
     }
    }
   }
  }
 }
 JOINT LeftHip
 {
  OFFSET 7.547200 -0.009500 -0.001000
  CHANNELS 3 Yrotation Xrotation Zrotation
  JOINT LeftKnee
  {
   OFFSET 0.000000 -39.762800 0.000900
   CHANNELS 3 Yrotation Xrotation Zrotation
   JOINT LeftAnkle
   {
    OFFSET 0.000000 -38.588200 0.001600
    CHANNELS 3 Yrotation Xrotation Zrotation
    JOINT LeftToe
    {
     OFFSET 0.000000 -4.693300 10.419700
     CHANNELS 3 Yrotation Xrotation Zrotation
     End Site
     {
      OFFSET 0.000000 -1.379900 5.669300
     }
    }
   }
  }
 }
}
MOTION
Frames: 12
Frame Time: 0.008333
-3.884333 46.024855 24.439838 152.151869 -12.199548 -0.759622 -3.079130 7.615521 -1.516225 -0.173021 0.392968 -0.044716 -0.301628 0.684681 -0.078627 -3.263963 7.239132 -1.023196 -25.611655 12.118416 0.793926 -32.852796 -11.031307 7.749405 8.288399 -4.289003 -8.683632 20.421235 -12.646292 -10.945111 35.786700 -36.572650 2.114005 -2.398334 -14.362372 -36.739025 -3.566653 -7.384789 -0.833490 -5.613325 2.187242 25.914825 -26.663062 -48.529926 -9.595836 -2.252103 -11.802915 40.083087 -22.235627 -74.723539 32.097937 -138.752710 85.269968 -140.559531 -7.861233 -20.800600 12.160924 0.083747 -0.050562 -0.068159 -14.182719 -71.429842 38.277258 80.904472 73.314747 79.657431 -11.166558 -5.582014 -3.289465 0.498304 1.389772 0.546655
-3.919406 46.033751 24.494463 152.001028 -12.341827 -0.827775 -3.141189 7.592492 -1.501144 -0.177901 0.394666 -0.043537 -0.310048 0.687519 -0.076594 -3.339396 7.239823 -1.002617 -25.653023 12.246150 0.756081 -32.884216 -10.870847 7.700130 8.349420 -4.279679 -8.702447 20.517614 -12.746289 -10.832834 35.781809 -36.357067 2.040661 -2.366051 -14.411076 -36.499827 -3.449869 -7.367963 -0.847408 -5.526700 2.252315 25.876393 -26.718671 -48.419740 -9.540967 -2.225313 -11.850052 40.071897 -22.069797 -74.558650 32.108531 -136.877551 85.319420 -138.673653 -8.015545 -20.779432 12.263873 0.059564 -0.040998 -0.075249 -14.028593 -71.347023 38.264879 80.772188 73.225530 79.632289 -11.193533 -5.557693 -3.373090 0.488132 1.364930 0.559511
-3.954051 46.041936 24.557047 151.875565 -12.420566 -0.912944 -3.246747 7.525379 -1.482770 -0.181599 0.393832 -0.042148 -0.316517 0.685963 -0.074088 -3.403921 7.218585 -0.978904 -25.691766 12.378858 0.714144 -32.909823 -10.704925 7.644458 8.398949 -4.272875 -8.715793 20.622162 -12.850419 -10.715316 35.772139 -36.135104 1.966891 -2.326759 -14.456972 -36.243350 -3.334348 -7.349751 -0.857131 -5.440865 2.327245 25.835426 -26.731337 -48.313925 -9.504994 -2.213279 -11.864368 40.048394 -22.116332 -74.441159 32.310414 -135.013494 85.368961 -136.808450 -8.195940 -20.744000 12.365554 0.027130 -0.049781 -0.087139 -13.990904 -71.316941 38.349042 80.575854 73.073013 79.539654 -11.297040 -5.500443 -3.468105 0.508572 1.324108 0.562425
-3.980588 46.052427 24.612946 151.686085 -12.538678 -0.995632 -3.297872 7.511823 -1.460837 -0.184544 0.390856 -0.040722 -0.321775 0.680809 -0.071643 -3.463974 7.177715 -0.956490 -25.727155 12.517897 0.669591 -32.928685 -10.532087 7.583972 8.433157 -4.269765 -8.725873 20.735353 -12.959210 -10.587694 35.758638 -35.902502 1.893674 -2.338003 -14.401004 -36.027890 -3.220637 -7.327088 -0.860344 -5.359546 2.400673 25.790315 -26.743145 -48.201500 -9.468903 -2.212604 -11.861737 40.011324 -22.076497 -74.285960 32.456028 -133.595815 85.446944 -135.414413 -8.135341 -20.698211 12.466733 0.066814 -0.077927 -0.110188 -13.915522 -71.244536 38.461992 80.488364 72.976973 79.550224 -11.337499 -5.477272 -3.512826 0.522835 1.270125 0.499809
-3.999108 46.063796 24.666899 151.506145 -12.666304 -1.105606 -3.349714 7.502737 -1.412647 -0.187934 0.387720 -0.039521 -0.327778 0.675481 -0.069723 -3.531820 7.133110 -0.939402 -25.756885 12.663626 0.623045 -32.937316 -10.352296 7.518728 8.456290 -4.271755 -8.736148 20.850270 -13.071803 -10.445425 35.744177 -35.655394 1.822669 -2.340216 -14.349983 -35.776801 -3.106589 -7.302182 -0.858816 -5.284570 2.467733 25.740493 -26.759397 -48.072700 -9.431690 -2.191547 -11.844113 39.976782 -21.756993 -74.154724 32.338285 -132.203866 85.534144 -133.944286 -8.062859 -20.680142 12.576373 0.122943 -0.079084 -0.128424 -13.932353 -71.157249 38.665105 80.433842 72.877769 79.593863 -11.379781 -5.455480 -3.557329 0.505793 1.255669 0.487482
-4.011941 46.076593 24.711818 151.351287 -12.834416 -1.213998 -3.416470 7.510634 -1.371645 -0.192484 0.385997 -0.038664 -0.335619 0.672488 -0.068273 -3.612338 7.098033 -0.927292 -25.778348 12.814301 0.573682 -32.931910 -10.168140 7.447132 8.471633 -4.278747 -8.747295 20.966383 -13.186640 -10.291900 35.723325 -35.395553 1.758537 -2.342775 -14.299554 -35.501689 -2.991780 -7.277867 -0.854545 -5.214131 2.525116 25.685664 -26.784075 -47.921945 -9.392968 -2.168782 -11.815799 39.929528 -21.418560 -73.989142 32.172234 -130.991451 85.616675 -132.637966 -8.040618 -20.679752 12.680166 0.140608 -0.075138 -0.148797 -13.935327 -71.031981 38.831071 80.408747 72.777623 79.665680 -11.377039 -5.355263 -3.619049 0.435580 1.160876 0.486552
-4.025421 46.088238 24.754633 151.198136 -12.986415 -1.303205 -3.486307 7.481129 -1.351245 -0.197768 0.385420 -0.037942 -0.344735 0.671398 -0.066966 -3.700547 7.071344 -0.916353 -25.789682 12.967903 0.520041 -32.909583 -9.982607 7.367195 8.482488 -4.291071 -8.759968 21.087071 -13.299867 -10.130009 35.686830 -35.126821 1.705718 -2.348121 -14.230186 -35.220854 -2.875086 -7.257869 -0.848030 -5.145982 2.572721 25.627506 -26.815452 -47.749467 -9.361733 -2.142221 -11.778244 39.876584 -21.058918 -73.845859 31.987992 -129.751985 85.684051 -131.274106 -8.167275 -20.668098 12.768849 0.126969 -0.088731 -0.156146 -13.913686 -70.923573 38.969497 80.407004 72.677411 79.754022 -11.398241 -5.330359 -3.725530 0.439850 1.080854 0.459588
-4.038884 46.098845 24.793151 151.036978 -13.138529 -1.369662 -3.560611 7.446085 -1.357204 -0.202904 0.384625 -0.037139 -0.353634 0.669951 -0.065600 -3.787220 7.042470 -0.904330 -25.790398 13.123847 0.461825 -32.869464 -9.796624 7.278470 8.492255 -4.307412 -8.773946 21.212127 -13.410006 -9.961212 35.629426 -34.852015 1.666867 -2.352180 -14.142483 -34.938082 -2.756335 -7.243124 -0.838337 -5.081622 2.610468 25.569991 -26.838839 -47.559012 -9.357021 -2.114309 -11.735194 39.825865 -20.603751 -73.716928 31.709445 -128.544867 85.745409 -129.914623 -8.330250 -20.667297 12.850502 0.096606 -0.100150 -0.166939 -13.854644 -70.814208 39.074569 80.420548 72.581978 79.851107 -11.469366 -5.281907 -3.757971 0.474200 1.001441 0.398938
-4.047395 46.109224 24.825608 150.900542 -13.317429 -1.443623 -3.668669 7.445486 -1.367137 -0.207491 0.382579 -0.036235 -0.361530 0.666364 -0.064103 -3.868666 7.002353 -0.891140 -25.781308 13.282492 0.398103 -32.812401 -9.609813 7.179980 8.496752 -4.323456 -8.788129 21.343335 -13.518770 -9.789410 35.552157 -34.573877 1.641234 -2.357898 -14.041406 -34.654539 -2.638704 -7.228924 -0.826909 -5.024337 2.638460 25.517594 -26.842737 -47.353444 -9.386443 -2.086633 -11.690693 39.776841 -20.159645 -73.560660 31.385153 -127.955685 85.822837 -129.195723 -8.283118 -20.681232 12.943128 0.108637 -0.129206 -0.198896 -13.828944 -70.669855 39.185108 80.446926 72.529971 79.942775 -11.442300 -5.254190 -3.795357 0.444986 0.952940 0.369527
-4.056356 46.115850 24.866296 150.706489 -13.431951 -1.521451 -3.723927 7.385184 -1.355907 -0.211631 0.379301 -0.035334 -0.368712 0.660702 -0.062520 -3.947718 6.950462 -0.877814 -25.762733 13.444851 0.326618 -32.738294 -9.420955 7.069045 8.492840 -4.334761 -8.803454 21.477097 -13.625431 -9.615752 35.463452 -34.297661 1.626683 -2.367865 -13.931915 -34.370957 -2.525100 -7.211850 -0.817341 -4.977682 2.659849 25.473631 -26.825282 -47.133699 -9.446208 -2.054687 -11.649471 39.726377 -19.849599 -73.455578 31.241416 -126.888187 85.906014 -128.007617 -8.172224 -20.662336 13.027910 0.136029 -0.155562 -0.230068 -13.866089 -70.569864 39.418643 80.461009 72.482326 80.007596 -11.419288 -5.251170 -3.822529 0.422945 0.933187 0.335949
-4.055142 46.121399 24.909674 150.509784 -13.546808 -1.657868 -3.767524 7.326242 -1.282711 -0.215538 0.375412 -0.034469 -0.375560 0.654054 -0.060937 -4.026070 6.892147 -0.865117 -25.736052 13.611390 0.246163 -32.648978 -9.229291 6.944490 8.483749 -4.338115 -8.819038 21.601357 -13.727546 -9.439085 35.378668 -34.027496 1.617534 -2.383011 -13.816150 -34.092681 -2.421511 -7.192195 -0.811631 -4.943924 2.676345 25.441020 -26.779763 -46.901171 -9.538274 -2.017378 -11.609813 39.673633 -19.917874 -73.301651 31.491350 -125.554266 85.967833 -126.618459 -8.042522 -20.606837 13.118753 0.178337 -0.209402 -0.254251 -14.088244 -70.432009 39.851268 80.408547 72.373607 80.029182 -11.519671 -5.268912 -3.927241 0.467291 0.948332 0.345287
-4.054633 46.127233 24.941826 150.371856 -13.704258 -1.767939 -3.867404 7.303043 -1.250816 -0.219285 0.371286 -0.033598 -0.382167 0.646979 -0.059394 -4.102956 6.830961 -0.852813 -25.702507 13.781550 0.157308 -32.546464 -9.035425 6.807552 8.470316 -4.334347 -8.831709 21.708349 -13.824608 -9.260982 35.307018 -33.763337 1.614018 -2.412309 -13.699430 -33.836332 -2.334040 -7.170082 -0.811160 -4.924955 2.690680 25.422555 -26.700123 -46.658533 -9.660345 -1.978335 -11.566935 39.620220 -19.883201 -73.116067 31.570798 -124.831436 86.032399 -125.858548 -7.922566 -20.589676 13.234732 0.219545 -0.253160 -0.278946 -14.209330 -70.288484 40.101656 80.402460 72.297350 80.117996 -11.561682 -5.245508 -3.987606 0.488118 0.918450 0.321720
